<svg xmlns="http://www.w3.org/2000/svg" width="256" height="256" fill="none" viewBox="0 0 256 256">
<!-- SVG created with Arrow, by QuiverAI (https://quiver.ai) -->
  <path d="m68.38 6.71h118.7c42.51 0 65.83 26.18 65.83 64.21v112.7c0 39.71-24.69 65.33-65.89 65.33h-118.6c-41.43 0-64.73-22.74-64.73-63.94v-114.1c0-38.84 23.8-64.15 64.67-64.15z" fill="url(#paint0_linear_924_1967)"/>
  <path d="m169.1 147.3c26.86-8.4 34.6-7.21 47.79-3.63 9.99 2.98 18.93 8.42 16.26 20.23-3.51 15.39-21.28 22.28-34.77 21.69-16.6-0.76-25.96-5.85-31.73-13.09-5.44-6.82-7.77-21.79 2.45-25.2z" fill="url(#paint1_linear_924_1967)"/>
  <path d="m168.8 150.9c10.45-4.28 17.63-4.68 25.06-4.14 7.43 0.53 23.31-0.21 30.19 4.99 6.04 4.6 3.92 12.07 1.94 13.67-5.78 2.05-17.28-5.34-35.83-4.12-10.44 0.68-17.46 3.43-21.96 5.63-3.34-1.69-5.85-13.06 0.6-16.03z" fill="url(#paint2_linear_924_1967)"/>
  <path d="m57.99 145.2c-23.37-4.06-30.98-0.38-35.04 6.6-6.84 11.96 4.01 28.43 22.25 32.58 11.92 2.97 23.76 0.77 30.21-3.29 7.43-4.61 9.41-13.64 5.06-23-2.68-5.44-8.88-10.36-22.48-12.89z" fill="url(#paint3_linear_924_1967)"/>
  <path d="m57.75 148.9c-9.14-2.19-19.54-2.76-26.12 2.03-6.04 4.45-4.22 12.25-2.24 13.85 5.05 0.66 7.52-4.73 25.83-4.73 9.85 0 17.25 2.1 21.75 4.29 3.34-1.68-0.39-12.29-19.22-15.44z" fill="url(#paint4_linear_924_1967)"/>
  <path d="m168.2 94.92c12.94-16.74 35.91-34.16 58.88-34.51 8.75-0.14 13.93 4.6 14.16 14.6 1.19 22.13-13.45 52.06-34.4 64.7-5.85 3.5-14.13 6.48-22.41 5.49l-16.23-50.28z" fill="url(#paint5_linear_924_1967)"/>
  <path d="m174.1 94.82c12.03-13.76 30.9-26.69 49-27.57 7.08-0.35 9.66 1.71 10.1 10.18-3.96 6.4-15.4 6.4-28.6 13.7-9.64 5.44-15.1 9.84-20.88 16.89l-9.62-13.2z" fill="url(#paint6_linear_924_1967)"/>
  <path d="m185.9 118.7c12.03-1.41 25.23-4.81 34.53-12.39 7.6-6.25 12.41-13.65 13.03-28.44l0.4-0.53c0.28 12.13-4.83 26.47-13.78 38.97-8 10.93-17.99 21.28-30.93 25.32l-3.25-22.93z" fill="url(#paint7_linear_924_1967)"/>
  <path d="m86.12 90.61c-12.79-15.23-35.51-29.4-56.06-30.2-10.94-0.5-15.47 5.69-16.24 14.9-1.56 18.84 9.8 45.75 25.28 58.12 7.19 6.19 15.47 11.43 24.08 10.83l22.94-53.65z" fill="url(#paint8_linear_924_1967)"/>
  <path d="m80.89 93.33c-11.5-13.62-30.58-25.27-49.73-26.26-6.53-0.35-8.59 1.71-9.03 10.04 3.51 5.3 13.95 6.1 24.75 11.1 10.37 5.05 18.04 9.87 25.47 18.17l8.54-13.05z" fill="url(#paint9_linear_924_1967)"/>
  <path d="m66.66 119.3c-12.03-1.41-24.89-4.57-32.85-12.28-6.2-5.59-11.08-13.68-11.45-28.47l-0.15-0.98c-0.6 10.86 3.98 23.35 12.93 35.85 8 10.92 17.57 21.1 28.01 25.81l3.51-19.93z" fill="url(#paint10_linear_924_1967)"/>
  <path d="m127.7 68.77c-35.13 0-59.66 24.56-70.87 80.52-5.6 20.92 2.48 40.42 32.09 50.72 10.95 3.82 22.88 6 38.71 6 24.13-0.3 47.42-8.03 59.46-19.72 10.94-10.66 13.76-21.98 11.43-32.9-9.32-49.97-29.62-83.11-70.82-84.62z" fill="url(#paint11_linear_924_1967)"/>
  <path d="m126.9 73.24c-32.33 0-56.53 24.56-61.83 69.22-2.33 20.92 6.98 42.72 31.78 53.07 8.72 3.82 16.52 5.88 29.91 5.88 30.76 0 56.26-18.03 62.53-49.22 4.3-20.92-10.2-75.42-62.39-78.95z" fill="url(#paint12_radial_924_1967)"/>
  <path d="m138.4 78.77c-2.19 0-2.87-1.48-2.26-5.3 1.63-13.25 5.94-30.46 20.02-37.28 7.12-3.51 14.48-3.3 18.98 0.27 6.53 5.12 3.56 15.98-3.31 18.17-5.29 1.75-10.9-1.52-14.05-4.11-3.51-2.33-8.45-1.34-12.05 7.13-2.53 6-3.65 13.24-4 18-0.13 1.78-1.13 3.06-3.33 3.12z" fill="url(#paint13_linear_924_1967)"/>
  <path d="m116.3 78.71c2.2-0.4 2.55-2.12 1.9-6-1.63-13.25-4.6-27.87-17.32-35.38-6.94-4.22-14.44-4.49-18.87-1.22-6.73 4.95-5.61 15.3 1.58 18.47 5.91 2.68 11.44-0.82 15.01-3.37 3.64-2.23 8.94-0.31 12.31 6.81 2.61 5.75 3.6 12.87 3.74 17.81 0.06 1.79 0.46 3 1.65 2.88z" fill="url(#paint14_linear_924_1967)"/>
  <path d="m89.84 38.17c-5.77 0-6.6 1.99-6.6 4.96 0 3.5 3.57 5.06 8.07 5.06 4.76 0 7.1-1.76 7.1-4.47 0-2.91-2.2-5.55-8.57-5.55z" fill="url(#paint15_linear_924_1967)"/>
  <path d="m165.8 38.51c-6.52 0-7.82 2.2-7.82 4.87 0 3.51 3.27 4.81 8.03 4.81 4.77 0 6.81-2.56 6.81-4.95 0-2.91-2.39-4.73-7.02-4.73z" fill="url(#paint16_linear_924_1967)"/>
  <path d="m87.93 123.7c-4.46 0.6-5.89 3.28-5.64 8.48 0.35 4.88 4.88 6.42 7.85 5.43 3.51-1.17 5.49-3.23 5.15-7.9-0.4-4.29-2.98-6.48-7.36-6.01z" fill="url(#paint17_linear_924_1967)"/>
  <path d="m168.3 123.7c4.46 0.6 5.89 3.28 5.64 8.48-0.35 4.88-4.88 6.42-7.85 5.43-3.51-1.17-5.49-3.23-5.14-7.9 0.39-4.29 2.97-6.48 7.35-6.01z" fill="url(#paint18_linear_924_1967)"/>
  <path d="m100.4 107.5c-8.82 0-13.58 7.71-13.58 14.31 0 8.33 6.2 13.38 13 13.38 8.21 0 12.97-6.32 12.97-13.65 0-7.71-6.2-14.04-12.39-14.04z" fill="#006464"/>
  <path d="m156.1 108c-8.82 0-12.93 7.71-12.93 14.31 0 8.33 6.19 13.38 12.39 13.38 8.82 0 13.88-7.05 13.88-13.87 0-8.33-6.2-13.82-13.34-13.82z" fill="#006464"/>
  <path d="m103.5 111c-3.75 0-4.65 2.61-4.65 4.6 0 2.61 2.15 4.08 4.51 4.08 3.04 0 4.27-2.47 4.27-4.16 0-2.25-1.53-4.52-4.13-4.52z" fill="#fff"/>
  <path d="m152.7 111.5c-3.51 0.5-4.81 2.9-4.61 4.99 0.4 2.74 2.38 3.76 4.43 3.63 3.2-0.2 4.76-2.6 4.76-4.65 0-2.26-1.7-4.35-4.58-3.97z" fill="#fff"/>
  <path d="m127.8 129.1c-1.7-0.99-4.87-1.12-6.65 0.39-2.33 2.09-1.56 5.29 1.88 7.14 2.84 1.44 3.44 2.17 5.14 2.17 1.43 0 2.13-0.86 4.6-2.17 3.61-1.92 3.95-5.12 1.85-7-1.91-1.65-5.35-1.31-6.82-0.53z" fill="url(#paint19_linear_924_1967)"/>
  <path d="m128.4 186.8c-13.32 0-17.31 3.1-17.31 7.36 0 4.29 6.33 6.2 16.98 6.2 10.61 0 17-2.8 17-6.47 0-3.99-6.26-7.09-16.67-7.09z" fill="url(#paint20_linear_924_1967)"/>
  <defs>
    <linearGradient id="paint0_linear_924_1967" x1="128.3" x2="128.3" y1="5.418" y2="251.3" gradientUnits="userSpaceOnUse">
      <stop stop-color="#ADF9BA" offset="0"/>
      <stop stop-color="#24C2BD" offset=".9635"/>
    </linearGradient>
    <linearGradient id="paint1_linear_924_1967" x1="198.6" x2="199.7" y1="142.1" y2="186.4" gradientUnits="userSpaceOnUse">
      <stop stop-color="#D0FFE1" offset="0"/>
      <stop stop-color="#66F1D0" offset=".9818"/>
    </linearGradient>
    <linearGradient id="paint2_linear_924_1967" x1="198.1" x2="198.1" y1="145.9" y2="167.1" gradientUnits="userSpaceOnUse">
      <stop stop-color="#BAFFD8" offset="0"/>
      <stop stop-color="#96F1D0" offset="1"/>
    </linearGradient>
    <linearGradient id="paint3_linear_924_1967" x1="51.76" x2="51.76" y1="143.8" y2="185.9" gradientUnits="userSpaceOnUse">
      <stop stop-color="#C0FFDD" offset="0"/>
      <stop stop-color="#66F1D0" offset=".9818"/>
    </linearGradient>
    <linearGradient id="paint4_linear_924_1967" x1="52.69" x2="52.69" y1="147.1" y2="165.6" gradientUnits="userSpaceOnUse">
      <stop stop-color="#D4FFE6" offset="0"/>
      <stop stop-color="#96F1D0" offset="1"/>
    </linearGradient>
    <linearGradient id="paint5_linear_924_1967" x1="204.9" x2="204.9" y1="60.39" y2="145.6" gradientUnits="userSpaceOnUse">
      <stop stop-color="#FEFFFE" offset="0"/>
      <stop stop-color="#B5FFD5" offset=".9818"/>
    </linearGradient>
    <linearGradient id="paint6_linear_924_1967" x1="203.6" x2="203.6" y1="67.13" y2="108" gradientUnits="userSpaceOnUse">
      <stop stop-color="#E6FFE3" offset="0"/>
      <stop stop-color="#B7FFD9" offset="1"/>
    </linearGradient>
    <linearGradient id="paint7_linear_924_1967" x1="209.8" x2="209.8" y1="77.36" y2="142" gradientUnits="userSpaceOnUse">
      <stop stop-color="#B7FFD9" offset="0"/>
      <stop stop-color="#96F1D0" offset="1"/>
    </linearGradient>
    <linearGradient id="paint8_linear_924_1967" x1="50.23" x2="50.23" y1="60.34" y2="144.4" gradientUnits="userSpaceOnUse">
      <stop stop-color="#FEFFFE" offset="0"/>
      <stop stop-color="#B5FFD5" offset=".9818"/>
    </linearGradient>
    <linearGradient id="paint9_linear_924_1967" x1="51.51" x2="51.51" y1="67.02" y2="106.4" gradientUnits="userSpaceOnUse">
      <stop stop-color="#E6FFE3" offset="0"/>
      <stop stop-color="#B7FFD9" offset="1"/>
    </linearGradient>
    <linearGradient id="paint10_linear_924_1967" x1="44.43" x2="44.43" y1="77.56" y2="139.2" gradientUnits="userSpaceOnUse">
      <stop stop-color="#B7FFD9" offset="0"/>
      <stop stop-color="#96F1D0" offset="1"/>
    </linearGradient>
    <linearGradient id="paint11_linear_924_1967" x1="127" x2="127" y1="68.77" y2="206" gradientUnits="userSpaceOnUse">
      <stop stop-color="#D0FFDF" offset="0"/>
      <stop stop-color="#F1FFDB" offset=".9818"/>
    </linearGradient>
    <radialGradient id="paint12_radial_924_1967" cx="0" cy="0" r="1" gradientTransform="translate(127.2 140) scale(65.27 65.93)" gradientUnits="userSpaceOnUse">
      <stop stop-color="#88FFB1" offset="0"/>
      <stop stop-color="#66F1BA" offset=".9818"/>
    </radialGradient>
    <linearGradient id="paint13_linear_924_1967" x1="159" x2="163" y1="33.9" y2="55.36" gradientUnits="userSpaceOnUse">
      <stop stop-color="#F6FFFE" offset="0"/>
      <stop stop-color="#B9FFD6" offset=".9818"/>
    </linearGradient>
    <linearGradient id="paint14_linear_924_1967" x1="97.04" x2="97.04" y1="33.97" y2="78.73" gradientUnits="userSpaceOnUse">
      <stop stop-color="#F6FFFE" offset="0"/>
      <stop stop-color="#D6FFEA" offset=".2707"/>
      <stop stop-color="#00B095" offset=".769"/>
    </linearGradient>
    <linearGradient id="paint15_linear_924_1967" x1="89.91" x2="89.91" y1="38.17" y2="48.19" gradientUnits="userSpaceOnUse">
      <stop stop-color="#FEFFFE" offset="0"/>
      <stop stop-color="#FEFFD0" offset="1"/>
    </linearGradient>
    <linearGradient id="paint16_linear_924_1967" x1="165.4" x2="165.4" y1="38.51" y2="48.19" gradientUnits="userSpaceOnUse">
      <stop stop-color="#FEFFFE" offset="0"/>
      <stop stop-color="#FEFFD0" offset="1"/>
    </linearGradient>
    <linearGradient id="paint17_linear_924_1967" x1="88.8" x2="88.8" y1="123.6" y2="138" gradientUnits="userSpaceOnUse">
      <stop stop-color="#88FFBA" offset="0"/>
      <stop stop-color="#88FFBA" stop-opacity=".25" offset=".9818"/>
    </linearGradient>
    <linearGradient id="paint18_linear_924_1967" x1="167.4" x2="167.4" y1="123.6" y2="138" gradientUnits="userSpaceOnUse">
      <stop stop-color="#88FFBA" offset="0"/>
      <stop stop-color="#88FFBA" stop-opacity=".25" offset=".9818"/>
    </linearGradient>
    <linearGradient id="paint19_linear_924_1967" x1="127.8" x2="127.8" y1="128.1" y2="138.8" gradientUnits="userSpaceOnUse">
      <stop stop-color="#FEFFFE" offset="0"/>
      <stop stop-color="#FEFFD0" offset="1"/>
    </linearGradient>
    <linearGradient id="paint20_linear_924_1967" x1="128.1" x2="128.1" y1="186.8" y2="200.4" gradientUnits="userSpaceOnUse">
      <stop stop-color="#FEFFD0" offset="0"/>
      <stop stop-color="#FEFFFE" offset=".9818"/>
    </linearGradient>
  </defs>
</svg>